<svg xmlns="http://www.w3.org/2000/svg" xmlns:svg="http://www.w3.org/2000/svg" xmlns:xlink="http://www.w3.org/1999/xlink" id="svg2" version="1.1" viewBox="0 0 495.4 229.79"><defs id="defs4"><linearGradient id="linearGradient3811" x1="220.91" x2="220.14" y1="275.47" y2="409" gradientTransform="matrix(.52229 0 0 .52229 32.409 54.691)" gradientUnits="userSpaceOnUse"><stop id="stop3787" offset="0" stop-color="#f60"/><stop id="stop3789" offset="1" stop-color="#f60" stop-opacity="0"/></linearGradient><radialGradient id="radialGradient3814" cx="218.69" cy="644.65" r="119.52" gradientTransform="matrix(.52229 0 0 .75068 32.409 -98.672)" gradientUnits="userSpaceOnUse"><stop id="stop3803" offset="0" stop-color="#ffd5d5"/><stop id="stop3805" offset="1" stop-color="#d40000"/></radialGradient></defs><g id="layer1" transform="translate(-73.207 -190.33)"><g id="g3021"><path id="path3001" fill="url(#radialGradient3814)" fill-rule="evenodd" d="m116.11 272.13c-18.208 10.907-30.407 30.817-30.407 53.583 0 27.431 17.691 50.727 42.289 59.1-0.19992-2.6694-0.0697-5.4188 0.24482-8.0465h0.0489c2.2757-11.039 6.5846-22.182 11.311-36.87 1.8344-5.7008 2.8273-12.402 2.285-18.949-0.54226-6.547-2.6538-13.073-7.5568-17.725-8.5327-8.0963-14.335-14.485-17.023-22.883l-1.1914-8.2097zm64.535 0.29379-1.371 8.1281c0.006 0.004 0.0101 0.0121 0.0163 0.0163-0.002 0.007-0.0142 0.01-0.0163 0.0163-2.7169 8.2726-8.4619 14.623-16.909 22.638-4.9031 4.6523-7.0309 11.178-7.5732 17.725-0.54227 6.547 0.46698 13.248 2.3013 18.949 4.7168 14.659 9.0014 25.787 11.278 36.805-0.0113 0.005-0.0214 0.0119-0.0326 0.0163 0.52294 2.75 0.79142 5.3681 0.73446 7.8017 24.172-8.6045 41.473-31.677 41.473-58.806 0-22.562-11.969-42.321-29.901-53.29zm-69.546 12.812c3.5785 8.8098 10.039 15.914 18.003 23.47 3.091 2.933 4.7981 7.5524 5.2392 12.878 0.44107 5.3253-0.41743 11.205-1.9586 15.995-4.4269 13.758-8.6512 24.694-11.148 35.94-16.685-9.4048-27.959-27.288-27.959-47.806 0-16.02 6.8695-30.45 17.823-40.477zm74.361 0.29379c10.771 10.014 17.513 24.317 17.513 40.184 0 20.363-11.105 38.133-27.583 47.593-2.5022-11.172-6.6995-22.056-11.099-35.728-1.5412-4.7896-2.3833-10.67-1.9423-15.995 0.44107-5.3253 2.1318-9.9447 5.2229-12.878 7.8775-7.4746 14.283-14.499 17.888-23.177z"/><path id="path3003" fill="url(#linearGradient3811)" d="m160.84 255.21c1.4781-11.155 2.7733-29.1 6.0775-39.429 6.8108 10.839 10.674 34.248 14.76 47.764 0.66585-15.112-2.8224-44.585-5.0356-48.099-2.7875-4.4264-12.729-14.837-28.308-15.119-15.579 0.28223-25.516 10.693-28.304 15.119-2.2132 3.5144-5.7015 32.987-5.0356 48.099 4.0852-13.516 7.9489-36.926 14.76-47.764 3.3042 10.329 4.5994 28.274 6.0775 39.429 2.007-15.363 7.5197-35.775 12.504-48.632 4.9844 12.858 10.497 33.269 12.504 48.632z"/><path id="path3005" fill="#500" d="m115.16 263.88c-21.995 11.841-36.952 35.08-36.952 61.793 0 28.862 17.471 53.641 42.403 64.388 0.91862 3.728 2.6227 7.2283 5.0923 10.234 4.901 5.964 12.81 9.8255 22.638 9.8255 9.8283 0 17.721-3.8615 22.622-9.8255 2.4668-3.0018 4.1729-6.4941 5.0923-10.217 24.933-10.742 42.387-35.534 42.387-64.405 0-26.636-14.86-49.822-36.74-61.695l-0.16322 2.8726c20.484 11.597 34.308 33.595 34.308 58.823 0 30.427-20.103 56.115-47.757 64.552-0.3766 1.1218-0.85706 2.1737-1.4852 3.15-0.004 0.006-0.0122 0.01-0.0163 0.0163-0.43988 0.72756-0.92621 1.4287-1.4689 2.0892-3.4288 4.1725-8.8694 7.0672-16.778 7.0672-7.9091 0-13.35-2.8947-16.778-7.0672-0.54581-0.6642-1.0264-1.3734-1.4689-2.1055-0.46898-0.96665-0.85029-1.9872-1.1588-3.0521-27.834-8.328-48.116-34.096-48.116-64.649 0-25.321 13.923-47.407 34.536-58.97l-0.19586-2.8236z" style="block-progression:tb;color:#000;text-transform:none;text-indent:0"/><g id="text3007" fill="none" stroke="#500" stroke-width="14.5"><path id="path3011" d="m256.1 377.76c-0.30751 1.0982-1.1421 2.0206-2.5038 2.7674-1.3617 0.74674-2.7234 1.1201-4.0851 1.1201-4.4805-0.00001-6.7207-3.2725-6.7207-9.8175-0.00001-3.1188 1.0323-11.948 3.0968-26.488 1.2738-8.917 1.9108-15.682 1.9108-20.294-0.00001-0.79062-0.92246-1.8229-2.7674-3.0968-1.8888-1.2299-2.8332-2.4378-2.8332-3.6239 0-1.8888 1.4276-3.9313 4.2828-6.1277 2.1963-1.7131 3.547-3.6238 4.0522-5.7324 0.50513-2.1084 1.0872-5.0295 1.7461-8.7633 2.2402-13.617 5.7433-23.435 10.509-29.453 4.766-6.0178 10.839-9.0267 18.218-9.0268 3.9094 0.00011 7.2258 1.3289 9.9493 3.9863 2.7234 2.6576 4.0851 5.9631 4.0851 9.9164-0.00006 3.2067-0.75779 6.8416-2.2732 10.905-1.5155 4.0633-3.2396 6.0948-5.1723 6.0948-1.4496 0.00008-2.1744-0.7247-2.1744-2.1744l0.46123-6.3913c-0.00005-8.4777-2.3721-12.717-7.116-12.717-5.1394 0.00011-9.4002 5.0406-12.783 15.122-3.3824 10.081-5.0735 18.284-5.0735 24.61-0.00003 2.0207 1.3178 3.031 3.9534 3.0309 11.465 0.00007 18.218-0.0439 20.261-0.13177 2.0425-0.0878 3.0638 0.76877 3.0639 2.5697-0.00006 1.801-1.1092 3.1737-3.3274 4.1181-2.2183 0.94447-7.0612 1.79-14.529 2.5367-6.3693 0.65895-9.9713 1.208-10.806 1.6472-2.9431 16.341-4.4146 30.902-4.4146 43.685-0.00002 3.8216 0.17568 6.6548 0.52711 8.4997 0.30746 1.7131 0.4612 2.7893 0.46123 3.2286z"/><path id="path3013" d="m306.39 378.02c-6.0179 0-10.982-2.2842-14.891-6.8525-3.9094-4.5683-5.8642-10.213-5.8642-16.934 0-11.333 3.8106-22.501 11.432-33.505 7.6212-11.003 16.747-16.505 27.377-16.505 7.0281 0.00007 12.728 2.7015 17.098 8.1044 4.3706 5.403 6.5559 11.838 6.556 19.306-0.00007 11.421-4.5135 22.007-13.54 31.759-9.0269 9.7516-18.416 14.627-28.168 14.627zm-9.1586-25.499c-0.00002 4.4366 0.93341 8.0605 2.8003 10.872 1.8668 2.8113 4.3377 4.2169 7.4126 4.2169 6.545 0 13.112-3.591 19.701-10.773 6.5889-7.1819 9.8833-15.166 9.8834-23.951-0.00006-5.4029-1.2629-9.7845-3.7886-13.145-2.5258-3.3603-5.9191-5.0405-10.18-5.0405-7.0722 0.00006-13.145 4.3378-18.218 13.013-5.0735 8.6755-7.6102 16.945-7.6102 24.807z"/><path id="path3015" d="m376.64 378.02c-6.0179 0-10.982-2.2842-14.891-6.8525-3.9094-4.5683-5.8642-10.213-5.8642-16.934 0-11.333 3.8106-22.501 11.432-33.505 7.6212-11.003 16.747-16.505 27.377-16.505 7.0281 0.00007 12.728 2.7015 17.098 8.1044 4.3706 5.403 6.5559 11.838 6.556 19.306-0.00007 11.421-4.5135 22.007-13.54 31.759-9.0269 9.7516-18.416 14.627-28.168 14.627zm-9.1586-25.499c-0.00002 4.4366 0.93341 8.0605 2.8003 10.872 1.8668 2.8113 4.3377 4.2169 7.4126 4.2169 6.545 0 13.112-3.591 19.701-10.773 6.5889-7.1819 9.8833-15.166 9.8834-23.951-0.00006-5.4029-1.2629-9.7845-3.7886-13.145-2.5258-3.3603-5.9191-5.0405-10.18-5.0405-7.0722 0.00006-13.145 4.3378-18.218 13.013-5.0735 8.6755-7.6102 16.945-7.6102 24.807z"/><path id="path3017" d="m474.89 347.45c-5.8862 9.4442-12.124 16.725-18.713 21.842-6.589 5.1174-12.651 7.6761-18.185 7.6761-4.2608 0-7.6322-1.6362-10.114-4.9088-2.4818-3.2725-3.7228-7.6322-3.7228-13.079 0-11.113 4.5134-22.512 13.54-34.197 9.0268-11.684 18.767-17.526 29.222-17.527 4.5683 0.00007 8.8072 1.9548 12.717 5.8642l9.2245-43.092c0.65882-2.943 1.8778-4.9196 3.6569-5.93 1.7789-1.0102 3.1736-1.5154 4.184-1.5155 3.0748 0.00011 4.6122 2.7235 4.6122 8.1703-0.00008 0.96648-1.0104 4.5684-3.0309 10.806-3.2067 9.6639-6.2486 21.535-9.1257 35.613-2.8772 14.078-4.3158 25.378-4.3158 33.9-0.00007 8.7853 1.9107 13.178 5.7324 13.178 2.4598 0.00001 5.0075-0.81262 7.6432-2.4379 1.0981-0.79065 2.1303-1.186 3.0968-1.186 1.4056 0.00001 2.1084 0.92246 2.1085 2.7674-0.00008 2.2402-1.9658 4.8319-5.8971 7.7749-3.9315 2.9431-7.9617 4.4146-12.091 4.4146-7.2479 0-10.872-6.9843-10.872-20.953-0.00006-2.372 0.10976-4.766 0.32945-7.1819zm-8.6315-30.836c-7.1161 0.00006-14.166 4.821-21.15 14.463-6.9843 9.6418-10.476 18.548-10.476 26.718-0.00002 5.4908 1.8229 8.2362 5.4688 8.2362 3.4262 0.00001 7.5882-1.801 12.486-5.4029 4.8977-3.6019 9.9383-9.3453 15.122-17.23 5.1832-7.8847 7.7749-13.804 7.7749-17.757-0.00006-1.9327-0.88956-3.9204-2.6685-5.963-1.7791-2.0425-3.9644-3.0638-6.556-3.0639z"/><path id="path3019" d="m543.96 359.64c-0.00004-2.8552-3.5141-6.1057-10.542-9.7516-8.917-4.5683-14.946-8.2252-18.087-10.971-3.1407-2.7454-4.7111-5.8092-4.7111-9.1916 0-8.7413 4.3816-15.989 13.145-21.743 8.7632-5.7543 15.912-8.6314 21.447-8.6315 3.558 0.00007 6.1386 0.61504 7.742 1.8449 1.6032 1.23 2.4049 3.3604 2.405 6.3913-0.00006 1.3618-0.58208 2.5258-1.7461 3.4921-1.1641 0.96644-2.0756 1.4496-2.7344 1.4496-0.48323 0.00006-1.4276-0.32939-2.8332-0.98835-1.4057-0.6149-2.3281-0.92238-2.7674-0.92245-2.1964 0.00007-6.6549 1.6034-13.376 4.8099-6.7207 3.2067-10.081 6.8306-10.081 10.872-0.00002 2.4599 1.186 4.6892 3.558 6.6878 2.372 1.9987 6.6328 4.4476 12.783 7.3467 4.9636 2.372 8.928 4.9088 11.893 7.6102 2.965 2.7015 4.4475 5.8752 4.4475 9.521-0.00006 6.7207-4.6343 11.981-13.903 15.78-9.2685 3.7996-18.12 5.6994-26.553 5.6994-7.116 0-10.674-2.4159-10.674-7.2478-0.00001-1.6692 0.80165-2.8991 2.405-3.6898 1.6033-0.79066 3.2176-1.186 4.8429-1.186 0.65889 0.00001 1.9108 0.21964 3.7557 0.6589 1.801 0.43927 2.987 0.6589 3.558 0.65889 4.8758 0.00001 10.103-0.81263 15.682-2.4379 5.5786-1.6253 9.0268-3.6459 10.345-6.0618z"/></g><g id="text3785" fill="#d40000" stroke="#fff" stroke-width="3"><path id="path3000" d="m256.1 377.76c-0.30751 1.0982-1.1421 2.0206-2.5038 2.7674-1.3617 0.74674-2.7234 1.1201-4.0851 1.1201-4.4805-0.00001-6.7207-3.2725-6.7207-9.8175-0.00001-3.1188 1.0323-11.948 3.0968-26.488 1.2738-8.917 1.9108-15.682 1.9108-20.294-0.00001-0.79062-0.92246-1.8229-2.7674-3.0968-1.8888-1.2299-2.8332-2.4378-2.8332-3.6239 0-1.8888 1.4276-3.9313 4.2828-6.1277 2.1963-1.7131 3.547-3.6238 4.0522-5.7324 0.50513-2.1084 1.0872-5.0295 1.7461-8.7633 2.2402-13.617 5.7433-23.435 10.509-29.453 4.766-6.0178 10.839-9.0267 18.218-9.0268 3.9094 0.00011 7.2258 1.3289 9.9493 3.9863 2.7234 2.6576 4.0851 5.9631 4.0851 9.9164-0.00006 3.2067-0.75779 6.8416-2.2732 10.905-1.5155 4.0633-3.2396 6.0948-5.1723 6.0948-1.4496 0.00008-2.1744-0.7247-2.1744-2.1744l0.46123-6.3913c-0.00005-8.4777-2.3721-12.717-7.116-12.717-5.1394 0.00011-9.4002 5.0406-12.783 15.122-3.3824 10.081-5.0735 18.284-5.0735 24.61-0.00003 2.0207 1.3178 3.031 3.9534 3.0309 11.465 0.00007 18.218-0.0439 20.261-0.13177 2.0425-0.0878 3.0638 0.76877 3.0639 2.5697-0.00006 1.801-1.1092 3.1737-3.3274 4.1181-2.2183 0.94447-7.0612 1.79-14.529 2.5367-6.3693 0.65895-9.9713 1.208-10.806 1.6472-2.9431 16.341-4.4146 30.902-4.4146 43.685-0.00002 3.8216 0.17568 6.6548 0.52711 8.4997 0.30746 1.7131 0.4612 2.7893 0.46123 3.2286z"/><path id="path3002" d="m306.39 378.02c-6.0179 0-10.982-2.2842-14.891-6.8525-3.9094-4.5683-5.8642-10.213-5.8642-16.934 0-11.333 3.8106-22.501 11.432-33.505 7.6212-11.003 16.747-16.505 27.377-16.505 7.0281 0.00007 12.728 2.7015 17.098 8.1044 4.3706 5.403 6.5559 11.838 6.556 19.306-0.00007 11.421-4.5135 22.007-13.54 31.759-9.0269 9.7516-18.416 14.627-28.168 14.627zm-9.1586-25.499c-0.00002 4.4366 0.93341 8.0605 2.8003 10.872 1.8668 2.8113 4.3377 4.2169 7.4126 4.2169 6.545 0 13.112-3.591 19.701-10.773 6.5889-7.1819 9.8833-15.166 9.8834-23.951-0.00006-5.4029-1.2629-9.7845-3.7886-13.145-2.5258-3.3603-5.9191-5.0405-10.18-5.0405-7.0722 0.00006-13.145 4.3378-18.218 13.013-5.0735 8.6755-7.6102 16.945-7.6102 24.807z"/><path id="path3004" d="m376.64 378.02c-6.0179 0-10.982-2.2842-14.891-6.8525-3.9094-4.5683-5.8642-10.213-5.8642-16.934 0-11.333 3.8106-22.501 11.432-33.505 7.6212-11.003 16.747-16.505 27.377-16.505 7.0281 0.00007 12.728 2.7015 17.098 8.1044 4.3706 5.403 6.5559 11.838 6.556 19.306-0.00007 11.421-4.5135 22.007-13.54 31.759-9.0269 9.7516-18.416 14.627-28.168 14.627zm-9.1586-25.499c-0.00002 4.4366 0.93341 8.0605 2.8003 10.872 1.8668 2.8113 4.3377 4.2169 7.4126 4.2169 6.545 0 13.112-3.591 19.701-10.773 6.5889-7.1819 9.8833-15.166 9.8834-23.951-0.00006-5.4029-1.2629-9.7845-3.7886-13.145-2.5258-3.3603-5.9191-5.0405-10.18-5.0405-7.0722 0.00006-13.145 4.3378-18.218 13.013-5.0735 8.6755-7.6102 16.945-7.6102 24.807z"/><path id="path3006" d="m474.89 347.45c-5.8862 9.4442-12.124 16.725-18.713 21.842-6.589 5.1174-12.651 7.6761-18.185 7.6761-4.2608 0-7.6322-1.6362-10.114-4.9088-2.4818-3.2725-3.7228-7.6322-3.7228-13.079 0-11.113 4.5134-22.512 13.54-34.197 9.0268-11.684 18.767-17.526 29.222-17.527 4.5683 0.00007 8.8072 1.9548 12.717 5.8642l9.2245-43.092c0.65882-2.943 1.8778-4.9196 3.6569-5.93 1.7789-1.0102 3.1736-1.5154 4.184-1.5155 3.0748 0.00011 4.6122 2.7235 4.6122 8.1703-0.00008 0.96648-1.0104 4.5684-3.0309 10.806-3.2067 9.6639-6.2486 21.535-9.1257 35.613-2.8772 14.078-4.3158 25.378-4.3158 33.9-0.00007 8.7853 1.9107 13.178 5.7324 13.178 2.4598 0.00001 5.0075-0.81262 7.6432-2.4379 1.0981-0.79065 2.1303-1.186 3.0968-1.186 1.4056 0.00001 2.1084 0.92246 2.1085 2.7674-0.00008 2.2402-1.9658 4.8319-5.8971 7.7749-3.9315 2.9431-7.9617 4.4146-12.091 4.4146-7.2479 0-10.872-6.9843-10.872-20.953-0.00006-2.372 0.10976-4.766 0.32945-7.1819zm-8.6315-30.836c-7.1161 0.00006-14.166 4.821-21.15 14.463-6.9843 9.6418-10.476 18.548-10.476 26.718-0.00002 5.4908 1.8229 8.2362 5.4688 8.2362 3.4262 0.00001 7.5882-1.801 12.486-5.4029 4.8977-3.6019 9.9383-9.3453 15.122-17.23 5.1832-7.8847 7.7749-13.804 7.7749-17.757-0.00006-1.9327-0.88956-3.9204-2.6685-5.963-1.7791-2.0425-3.9644-3.0638-6.556-3.0639z"/><path id="path3008" d="m543.96 359.64c-0.00004-2.8552-3.5141-6.1057-10.542-9.7516-8.917-4.5683-14.946-8.2252-18.087-10.971-3.1407-2.7454-4.7111-5.8092-4.7111-9.1916 0-8.7413 4.3816-15.989 13.145-21.743 8.7632-5.7543 15.912-8.6314 21.447-8.6315 3.558 0.00007 6.1386 0.61504 7.742 1.8449 1.6032 1.23 2.4049 3.3604 2.405 6.3913-0.00006 1.3618-0.58208 2.5258-1.7461 3.4921-1.1641 0.96644-2.0756 1.4496-2.7344 1.4496-0.48323 0.00006-1.4276-0.32939-2.8332-0.98835-1.4057-0.6149-2.3281-0.92238-2.7674-0.92245-2.1964 0.00007-6.6549 1.6034-13.376 4.8099-6.7207 3.2067-10.081 6.8306-10.081 10.872-0.00002 2.4599 1.186 4.6892 3.558 6.6878 2.372 1.9987 6.6328 4.4476 12.783 7.3467 4.9636 2.372 8.928 4.9088 11.893 7.6102 2.965 2.7015 4.4475 5.8752 4.4475 9.521-0.00006 6.7207-4.6343 11.981-13.903 15.78-9.2685 3.7996-18.12 5.6994-26.553 5.6994-7.116 0-10.674-2.4159-10.674-7.2478-0.00001-1.6692 0.80165-2.8991 2.405-3.6898 1.6033-0.79066 3.2176-1.186 4.8429-1.186 0.65889 0.00001 1.9108 0.21964 3.7557 0.6589 1.801 0.43927 2.987 0.6589 3.558 0.65889 4.8758 0.00001 10.103-0.81263 15.682-2.4379 5.5786-1.6253 9.0268-3.6459 10.345-6.0618z"/></g></g></g><metadata/></svg>